PathFileType	4	(X/Y/Z)	/Users/visionmauri/Downloads/Videos/OAW07-top_Sports2D/OAW07-top_Sports2D_px_person00.trc
DataRate	CameraRate	NumFrames	NumMarkers	Units	OrigDataRate	OrigDataStartFrame	OrigNumFrames
30.0	30.0	9	22	m	30.0	2268	3025
Frame#	Time	Hip			RHip			RKnee			RAnkle			RBigToe			RSmallToe			RHeel			LHip			LKnee			LAnkle			LBigToe			LSmallToe			LHeel			Neck			Head			Nose			RShoulder			RElbow			RWrist			LShoulder			LElbow			LWrist			
		X1	Y1	Z1	X2	Y2	Z2	X3	Y3	Z3	X4	Y4	Z4	X5	Y5	Z5	X6	Y6	Z6	X7	Y7	Z7	X8	Y8	Z8	X9	Y9	Z9	X10	Y10	Z10	X11	Y11	Z11	X12	Y12	Z12	X13	Y13	Z13	X14	Y14	Z14	X15	Y15	Z15	X16	Y16	Z16	X17	Y17	Z17	X18	Y18	Z18	X19	Y19	Z19	X20	Y20	Z20	X21	Y21	Z21	X22	Y22	Z22
2268	75.62499999999999	523.0828380299548	619.43543110176	0.0	506.490231119841	623.4817581975841	0.0	506.71566251337697	690.9905720283028	0.0	508.15912456042236	730.7036354788648	0.0	508.913095400712	760.1127064697399	0.0	498.64077973651126	755.4930488908767	0.0	508.3844251156481	731.9080768362392	0.0	538.9145400510992	624.0361305647926	0.0	533.6133470012062	689.8686120878195	0.0	528.4493761464455	758.4838067716407	0.0	525.1512784647416	781.1953949954287	0.0	534.2273748529442	779.2477329685744	0.0	524.3745236628316	767.1926465312841	0.0	524.9948260007078	527.3694779406062	0.0	526.9865491627357	483.85070322234327	0.0	526.2949956614032	514.0384011179632	0.0	492.96462036617953	534.0341574279705	0.0	478.3262763327227	578.6623868332254	0.0	479.1544816674594	614.93545016977	0.0	557.3247036466686	534.9067448772878	0.0	565.9661062637722	584.6521809561267	0.0	568.9782029707651	625.4562026239186	0.0
2269	75.65834435626101	522.9821069593263	619.3882014619425	0.0	506.27807857216936	623.0978878677282	0.0	506.06103905124905	690.7930872651542	0.0	507.32438139205664	730.8192531539981	0.0	506.64681070080826	761.8714894131884	0.0	496.4802442634116	757.2316997150693	0.0	507.9907828012991	732.0646502279975	0.0	538.8347213647469	623.9271292129778	0.0	533.6006328160906	690.8650065373545	0.0	528.6444736643506	758.1400547771108	0.0	524.8421198480489	781.2148506726032	0.0	534.1210067077501	779.1463324984446	0.0	524.5799224359056	766.4536124516839	0.0	525.2628004602187	527.2261966865814	0.0	527.0151333544835	482.4727053818635	0.0	526.1328464286702	514.20513214464	0.0	492.86583870242964	533.8249911239401	0.0	478.6225388640489	579.2881906953176	0.0	478.903583004015	615.6856467540777	0.0	558.1899545429147	534.6352894110563	0.0	566.2707105537736	584.6156194715447	0.0	569.39110366712	625.9645177559611	0.0
2270	75.69168871252204	522.7320857395785	619.7791831008319	0.0	506.01598817891164	622.9650046121568	0.0	505.6323906005657	690.7985073658134	0.0	506.5031201788572	734.2637241959626	0.0	504.4958275777286	765.7144537039403	0.0	494.9108867484949	761.31368447266	0.0	507.4492224021336	736.3058694956262	0.0	538.4082076770851	623.8245841244822	0.0	533.7656520918028	691.7365021832943	0.0	528.6396647918017	757.7003600897464	0.0	524.6005088864472	781.4114756136454	0.0	534.0337179820406	779.3253089650672	0.0	524.6674376858199	765.7095148202641	0.0	525.5941959973779	526.5117810202443	0.0	527.1919263503361	481.212997614353	0.0	525.9610065369013	513.7181285822302	0.0	492.754280252167	533.6624468885855	0.0	478.92080934025273	579.4327296302042	0.0	478.5377330680463	616.3201943862812	0.0	559.1027594581263	534.5190728225099	0.0	566.6075119560134	584.4561270126122	0.0	569.6366283313063	626.4217928934831	0.0
2271	75.72503306878306	522.4085153291012	620.6463611444674	0.0	505.6417505576501	623.1148716274563	0.0	505.1004406897755	691.0999059465125	0.0	505.4839699795983	740.6689894601948	0.0	502.7423220712065	771.0208881531207	0.0	493.6596573844887	767.0319830051063	0.0	506.5019119298037	744.2595192746995	0.0	537.9781440779344	623.7731110865226	0.0	533.9700084406326	692.5068085394948	0.0	528.4257181941093	757.546263185634	0.0	524.4951201871966	781.8541333019415	0.0	533.936444750589	779.9113095593389	0.0	524.6257365467629	765.3449074801555	0.0	525.8730253359186	525.7453207875388	0.0	527.7214115446958	480.99094101462254	0.0	526.1814785682784	513.1807198298045	0.0	492.72334572262	533.2611926488926	0.0	478.98454529011286	579.4599518080181	0.0	478.3111242266732	616.7144802610221	0.0	559.7230739869616	534.5306606079203	0.0	566.872437898269	584.7278119492861	0.0	569.7853904111371	627.2640077871954	0.0
2272	75.75837742504409	522.0414353860663	621.4069139513751	0.0	505.2254603154267	623.5447893413375	0.0	504.1845086560152	691.8704423914756	0.0	504.21092053687255	748.4708326357733	0.0	501.7944221935597	776.642948616468	0.0	492.7447297483895	773.2042128835934	0.0	505.09936076683886	754.3538983534345	0.0	537.8245622545236	624.0623457594162	0.0	534.1368452116923	693.516319376715	0.0	528.1584298997554	757.8163950505075	0.0	524.2792013901587	782.3003806043624	0.0	533.7718928660705	780.6871477673278	0.0	524.7334599695221	765.7892406858961	0.0	526.1085814981534	525.3584777554197	0.0	528.2822383385351	481.3210513961449	0.0	526.6850876159433	513.2214972988269	0.0	492.9723672252346	532.7239241263798	0.0	478.8297282039828	579.6409161822157	0.0	478.3132792693116	617.183435690025	0.0	559.9756266787363	534.8156318947599	0.0	567.0595038090643	585.4248868065137	0.0	569.8736809724613	628.2671032139064	0.0
2273	75.7917217813051	521.6696207794224	621.6298437615873	0.0	504.9154591868321	624.1275845926547	0.0	503.12522742328275	693.2384452264223	0.0	502.7749536706276	755.8651659368223	0.0	501.81079182539344	781.993163350704	0.0	492.29548182702257	779.1507885561714	0.0	503.3737136253885	764.306819684208	0.0	537.9040985159158	624.8215047558555	0.0	534.2672101849834	694.8325756149164	0.0	528.0294136267333	758.4281401895298	0.0	523.8655270852371	782.5185761080969	0.0	533.658354613259	781.2358256770293	0.0	525.2729894060668	766.9976185860962	0.0	526.3773394091847	525.3019196199317	0.0	528.558110420477	481.2141796336055	0.0	527.0255449047163	513.4625890332247	0.0	493.44688402377847	532.6008522739105	0.0	478.7439851083294	579.9057566190463	0.0	478.25469549250124	617.9651555111419	0.0	560.1264740324888	535.5039698854704	0.0	567.2871339350478	586.1605226469279	0.0	569.7705292119527	628.8456926713444	0.0
2274	75.82506613756613	521.3876060408618	621.745827590329	0.0	504.62497499607963	624.5970058052065	0.0	502.32615022141243	694.7686752335079	0.0	501.3708007560138	761.6240245700599	0.0	502.3278100179566	786.8636480220758	0.0	492.0121233804226	784.4321359311425	0.0	501.8047990658188	771.8925541112503	0.0	537.985924164289	625.6747768488007	0.0	534.252472188443	696.0563425229443	0.0	528.0834427767655	759.1675621137424	0.0	523.5475214574387	782.4969810427388	0.0	533.7234695528717	781.3638418009133	0.0	525.9602365488719	768.0935893023407	0.0	526.6176263507199	525.2745203145798	0.0	528.6620100450788	480.99184292956136	0.0	527.0165123104302	513.4554914531548	0.0	493.7618192537123	533.0211762839848	0.0	478.79061540529193	580.228789199551	0.0	477.81755178931644	619.0213599820192	0.0	560.4454675060756	536.3608832036921	0.0	567.5669065820742	586.8824165178139	0.0	569.4183157265098	628.9996559775901	0.0
2275	75.85841049382715	521.258057160333	622.4037842402673	0.0	504.27543279524866	625.0715558430985	0.0	501.9623588762571	696.0930896135801	0.0	500.3731742316369	765.6097605086678	0.0	502.6925563928229	790.7017430256828	0.0	491.6549764522288	788.506436483764	0.0	500.9907157542686	776.6713603285511	0.0	537.967942707733	626.4611343313406	0.0	534.0506054803436	697.035762249475	0.0	528.1071483503546	759.6931551639403	0.0	523.4683024113433	782.4269645520951	0.0	533.7176956288959	781.1775147259217	0.0	526.1388359181351	768.3821011514971	0.0	526.7062140739688	525.1886909123344	0.0	528.6698522498332	481.3551889685434	0.0	526.7886340764635	513.2123954015713	0.0	493.803142874449	533.5589125069102	0.0	478.74581190423186	580.7944092578645	0.0	477.1605509351247	620.3697293392139	0.0	560.9195046334424	537.0408978781436	0.0	567.8139021924386	587.7720721101334	0.0	569.0680286980459	629.0933926026423	0.0
2276	75.89175485008818	521.2088044196462	623.725489175667	0.0	504.02089936089925	626.2303061326718	0.0	502.1097235370261	697.5570202022715	0.0	500.1695685771454	768.5256908008184	0.0	502.7178592908828	793.1960993719136	0.0	491.5948532214369	791.3198191953205	0.0	500.86192704084607	780.104511619848	0.0	537.8817285276278	627.8033304695393	0.0	533.8297438575689	698.168376545629	0.0	527.9243889809184	759.8249080994682	0.0	523.411229198529	782.4240668537316	0.0	533.240822911525	780.9307756866259	0.0	525.6339411733235	768.4375152180216	0.0	526.5874072663283	525.4039134648255	0.0	528.3432538718755	481.83502943657646	0.0	526.4160967558819	512.723512355245	0.0	493.7977086057249	534.1790519902912	0.0	478.4912176812795	581.8790954945594	0.0	476.7896635290505	622.0953498099874	0.0	561.348801676585	537.6082889461358	0.0	567.9858918460308	588.7673149161166	0.0	568.9696350838691	629.2400618415063	0.0
